<svg width="426" height="92" viewBox="0 0 426 92" fill="none" xmlns="http://www.w3.org/2000/svg">
<g filter="url(#filter0_d_1_15)">
<path d="M6.28 81.432C6.10933 81.432 5.81067 81.3467 5.384 81.176C4.95733 81.0907 4.744 80.92 4.744 80.664C4.744 80.5787 4.78667 80.4933 4.872 80.408C4.95733 80.3227 5 80.28 5 80.28C5.59733 80.1093 5.85333 80.024 5.768 80.024C5.768 80.1093 6.06667 80.0667 6.664 79.896C8.11467 79.384 9.352 78.6587 10.376 77.72C11.4853 76.696 12.424 75.5013 13.192 74.136C17.2027 67.48 21.0427 60.7387 24.712 53.912C28.3813 47 32.0507 40.1307 35.72 33.304C36.744 31.512 37.7253 29.6773 38.664 27.8C39.6027 25.9227 40.5413 24.0453 41.48 22.168C41.9067 21.144 42.3333 20.12 42.76 19.096C43.272 18.072 43.8267 17.0907 44.424 16.152C45.1067 14.9573 46.1733 13.9333 47.624 13.08C49.16 12.1413 50.6107 11.4587 51.976 11.032H48.904C47.1973 11.032 44.8507 11.16 41.864 11.416C38.9627 11.5867 35.8907 11.928 32.648 12.44C29.4053 12.952 26.504 13.72 23.944 14.744C21.4693 15.768 19.7627 17.1333 18.824 18.84C17.9707 20.376 17.544 21.8693 17.544 23.32C17.544 25.0267 17.928 26.1787 18.696 26.776C19.464 27.3733 19.848 27.7573 19.848 27.928C19.848 28.0987 19.72 28.2693 19.464 28.44C19.208 28.6107 18.9947 28.696 18.824 28.696C18.312 28.696 17.672 28.184 16.904 27.16C16.136 26.136 15.4107 25.0267 14.728 23.832C14.1307 22.552 13.7467 21.6987 13.576 21.272C13.32 20.3333 13.192 19.3947 13.192 18.456C13.192 16.152 13.96 14.4027 15.496 13.208C17.1173 11.928 19.08 11.032 21.384 10.52C23.688 10.008 25.992 9.70933 28.296 9.62399C30.6853 9.45333 32.648 9.368 34.184 9.368C38.4507 9.368 42.7173 9.28266 46.984 9.112C51.2507 8.856 55.4747 8.728 59.656 8.728C63.6667 8.728 67.592 9.02666 71.432 9.62399C75.3573 10.136 78.8987 11.2027 82.056 12.824C85.2133 14.4453 87.7307 16.7493 89.608 19.736C91.5707 22.7227 92.552 26.648 92.552 31.512C92.552 35.9493 91.6987 40.5147 89.992 45.208C88.3707 49.816 86.3227 53.9547 83.848 57.624C73.4373 73.24 58.8453 81.048 40.072 81.048C37.1707 81.048 34.184 80.7493 31.112 80.152C28.1253 79.5547 25.3093 78.5733 22.664 77.208C22.0667 76.8667 21.4267 76.6107 20.744 76.44C20.1467 76.184 19.5067 76.056 18.824 76.056C17.3733 76.056 15.9227 76.5253 14.472 77.464C13.0213 78.3173 11.6133 79.1707 10.248 80.024C8.88267 80.9627 7.56 81.432 6.28 81.432ZM38.536 79.256C44.936 79.256 50.9093 78.0187 56.456 75.544C62.0027 73.0693 66.8667 69.6133 71.048 65.176C75.2293 60.6533 78.5147 55.4907 80.904 49.688C82.0133 46.9573 82.9093 44.0987 83.592 41.112C84.36 38.1253 84.744 35.1813 84.744 32.28C84.744 25.624 82.696 20.504 78.6 16.92C74.5893 13.2507 69.2987 11.416 62.728 11.416C61.1067 11.416 59.4 11.5867 57.608 11.928C55.9013 12.2693 54.4933 13.08 53.384 14.36C52.2747 15.7253 51.208 17.2187 50.184 18.84C49.2453 20.4613 48.3067 22.04 47.368 23.576C45.4053 26.9893 43.528 30.5307 41.736 34.2C40.0293 37.784 38.28 41.3253 36.488 44.824C33.672 50.2 30.8987 55.6187 28.168 61.08C27.5707 62.2747 26.9307 63.512 26.248 64.792C25.6507 65.9867 25.0533 67.1813 24.456 68.376C24.2853 68.8027 24.1147 69.272 23.944 69.784C23.7733 70.2107 23.688 70.7227 23.688 71.32C23.688 72.4293 24.0293 73.368 24.712 74.136C25.3947 74.904 26.12 75.6293 26.888 76.312C28.5093 77.5067 30.3867 78.3173 32.52 78.744C34.6533 79.0853 36.6587 79.256 38.536 79.256ZM112.005 79.384C111.152 79.384 110.426 79.2133 109.829 78.872C109.232 78.5307 108.933 77.8907 108.933 76.952C108.933 75.7573 109.232 74.392 109.829 72.856C110.426 71.32 111.109 69.8267 111.877 68.376C112.645 66.84 113.328 65.6027 113.925 64.664C110.938 67.8213 107.824 70.808 104.581 73.624C102.96 74.9893 101.168 76.2693 99.205 77.464C97.2423 78.6587 95.1517 79.256 92.933 79.256C92.0797 79.256 91.4823 79 91.141 78.488C90.7997 77.8907 90.629 77.208 90.629 76.44C90.629 76.0133 90.6717 75.7147 90.757 75.544C91.1837 72.216 92.2503 68.76 93.957 65.176C95.6637 61.592 97.7543 58.2213 100.229 55.064C102.704 51.9067 105.221 49.3467 107.781 47.384C110.682 45.1653 113.882 44.056 117.381 44.056H132.101C132.528 44.056 132.741 44.2267 132.741 44.568C132.741 45.2507 132.357 45.592 131.589 45.592C130.736 45.592 129.882 46.1467 129.029 47.256C128.176 48.28 127.536 49.1333 127.109 49.816C126.512 50.7547 125.573 52.3333 124.293 54.552C123.013 56.7707 121.69 59.2027 120.325 61.848C119.045 64.408 117.936 66.7973 116.997 69.016C116.058 71.2347 115.589 72.856 115.589 73.88C115.589 75.0747 116.186 75.672 117.381 75.672C118.661 75.672 120.112 75.0747 121.733 73.88C123.354 72.6853 124.976 71.2347 126.597 69.528C128.304 67.736 129.84 65.9867 131.205 64.28C132.656 62.488 133.808 61.08 134.661 60.056C135.173 60.568 135.13 61.2933 134.533 62.232C134.021 63.0853 133.552 63.768 133.125 64.28C131.418 66.4987 129.456 68.8027 127.237 71.192C125.018 73.496 122.586 75.4587 119.941 77.08C117.381 78.616 114.736 79.384 112.005 79.384ZM98.181 74.904C99.205 74.904 100.613 74.1787 102.405 72.728C104.282 71.192 106.288 69.3147 108.421 67.096C110.554 64.792 112.56 62.4027 114.437 59.928C116.314 57.368 117.85 55.064 119.045 53.016C120.325 50.8827 120.965 49.2613 120.965 48.152C120.965 47.2133 120.666 46.5733 120.069 46.232C119.557 45.8907 118.874 45.72 118.021 45.72C116.656 45.72 115.162 46.232 113.541 47.256C112.005 48.1947 110.768 49.1333 109.829 50.072C108.805 51.0107 107.568 52.504 106.117 54.552C104.752 56.5147 103.386 58.6907 102.021 61.08C100.656 63.4693 99.5037 65.7733 98.565 67.992C97.6263 70.2107 97.157 72.0027 97.157 73.368C97.157 74.392 97.4983 74.904 98.181 74.904ZM145.022 81.048C143.486 81.048 141.865 80.8347 140.158 80.408C138.451 79.9813 136.915 79.2987 135.55 78.36C134.27 77.336 133.417 75.9707 132.99 74.264C132.905 74.008 132.862 73.624 132.862 73.112C132.862 71.9173 133.118 70.5947 133.63 69.144C134.227 67.6933 134.953 66.6693 135.806 66.072C136.147 65.9013 136.403 65.9013 136.574 66.072C136.83 66.2427 136.873 66.4133 136.702 66.584C136.617 66.84 136.489 67.1813 136.318 67.608C136.147 67.9493 136.019 68.3333 135.934 68.76C135.678 70.9787 136.147 72.9413 137.342 74.648C137.854 75.3307 138.451 75.9707 139.134 76.568C139.902 77.1653 140.627 77.6773 141.31 78.104C141.907 78.4453 142.633 78.7013 143.486 78.872C144.339 78.9573 145.193 79 146.046 79C147.411 79 148.734 78.8293 150.014 78.488C151.294 78.1467 152.233 77.592 152.83 76.824C153.939 75.4587 154.494 73.9227 154.494 72.216C154.494 70.936 154.153 69.5707 153.47 68.12C152.787 66.6693 151.721 65.1333 150.27 63.512C149.331 62.488 148.435 61.3787 147.582 60.184C146.729 58.9893 146.174 57.7093 145.918 56.344C145.833 56.088 145.747 55.832 145.662 55.576C145.662 55.32 145.662 55.064 145.662 54.808C144.553 56.4293 143.401 57.9653 142.206 59.416C141.097 60.7813 140.115 61.976 139.262 63C138.921 63.512 138.622 63.768 138.366 63.768C138.195 63.768 138.11 63.5973 138.11 63.256C138.11 62.488 138.451 61.6773 139.134 60.824C139.817 60.056 140.585 59.1173 141.438 58.008C142.291 56.8133 142.974 55.8747 143.486 55.192C144.937 53.0587 146.003 51.3947 146.686 50.2C147.454 48.92 148.265 47.768 149.118 46.744C150.057 45.6347 151.209 44.7387 152.574 44.056C154.025 43.3733 155.518 43.032 157.054 43.032C158.846 43.032 160.467 43.3307 161.918 43.928C163.454 44.44 164.265 45.8053 164.35 48.024C164.35 49.048 164.137 50.1147 163.71 51.224C163.369 52.248 162.985 53.2293 162.558 54.168C162.302 54.68 161.918 55.064 161.406 55.32C160.979 55.4907 160.766 55.4053 160.766 55.064C160.766 54.7227 160.809 54.3387 160.894 53.912C160.979 53.4853 161.022 53.1013 161.022 52.76C161.022 51.3093 160.766 50.0293 160.254 48.92C159.827 47.7253 159.187 46.872 158.334 46.36C157.481 45.7627 156.585 45.464 155.646 45.464C154.281 45.464 152.958 46.0187 151.678 47.128C150.398 48.152 149.758 49.5173 149.758 51.224C149.758 51.3947 149.758 51.608 149.758 51.864C149.758 52.12 149.801 52.3333 149.886 52.504C150.227 53.8693 151.251 55.4053 152.958 57.112C154.665 58.8187 155.987 60.312 156.926 61.592C158.547 63.8107 159.358 66.072 159.358 68.376C159.358 70.68 158.675 72.8133 157.31 74.776C156.03 76.6533 154.281 78.1467 152.062 79.256C149.929 80.4507 147.582 81.048 145.022 81.048ZM191.156 79.768C189.876 79.768 188.724 79.512 187.7 79C186.761 78.488 186.292 77.5493 186.292 76.184C186.292 75.416 186.463 74.5627 186.804 73.624C187.572 71.6613 188.596 69.272 189.876 66.456C191.241 63.64 192.607 60.9093 193.972 58.264C195.337 55.5333 196.404 53.3147 197.172 51.608C197.684 50.584 197.94 49.8587 197.94 49.432C197.94 48.664 197.513 48.4933 196.66 48.92C195.807 49.3467 194.868 49.944 193.844 50.712C192.82 51.48 192.052 52.0773 191.54 52.504C189.321 54.552 186.975 56.984 184.5 59.8C182.111 62.5307 179.892 65.432 177.844 68.504C175.881 71.4907 174.345 74.4773 173.236 77.464C173.151 77.976 172.596 78.4027 171.572 78.744C170.548 79.0853 169.609 79.256 168.756 79.256C167.391 79.256 166.879 78.8293 167.22 77.976C169.183 73.5387 171.188 68.632 173.236 63.256C175.369 57.88 177.759 52.376 180.404 46.744C182.367 42.4773 184.543 38.0827 186.932 33.56C189.407 29.0373 192.137 24.728 195.124 20.632C198.111 16.4507 201.396 12.7813 204.98 9.62399C208.137 6.89333 211.593 4.67466 215.348 2.96799C219.188 1.176 223.327 0.279999 227.764 0.279999C229.727 0.279999 231.433 0.706665 232.884 1.56C234.335 2.328 235.145 3.736 235.316 5.784V6.936C235.316 8.13066 235.188 9.32533 234.932 10.52C234.847 10.8613 234.505 11.032 233.908 11.032C233.652 11.032 233.567 10.9893 233.652 10.904C233.993 8.68533 233.396 7.10666 231.86 6.168C230.409 5.22933 228.532 4.75999 226.228 4.75999C222.047 4.75999 218.207 5.52799 214.708 7.064C211.209 8.6 207.967 10.648 204.98 13.208C200.372 17.2187 196.361 22.3387 192.948 28.568C189.535 34.7973 186.591 41.1547 184.116 47.64C182.921 50.7973 181.727 53.9547 180.532 57.112C179.423 60.2693 178.356 63.2133 177.332 65.944C181.172 60.824 184.841 56.4293 188.34 52.76C191.924 49.0907 195.039 46.488 197.684 44.952C199.817 43.7573 201.737 43.16 203.444 43.16C205.065 43.16 205.876 43.8427 205.876 45.208C205.876 46.4027 205.279 47.9387 204.084 49.816C203.487 50.7547 202.548 52.3333 201.268 54.552C200.073 56.7707 198.793 59.2027 197.428 61.848C196.148 64.408 195.039 66.7973 194.1 69.016C193.161 71.2347 192.692 72.856 192.692 73.88C192.692 75.2453 193.289 75.928 194.484 75.928C195.167 75.928 195.935 75.7147 196.788 75.288C197.727 74.8613 198.409 74.4773 198.836 74.136C201.14 72.4293 203.401 70.3387 205.62 67.864C207.839 65.3893 209.716 63.2133 211.252 61.336C211.337 61.2507 211.38 61.3787 211.38 61.72C211.38 62.0613 211.295 62.5733 211.124 63.256C211.039 63.8533 210.783 64.3653 210.356 64.792C209.417 66.072 208.436 67.3093 207.412 68.504C206.473 69.6133 205.535 70.7227 204.596 71.832C202.975 73.7093 201.012 75.5013 198.708 77.208C196.489 78.9147 193.972 79.768 191.156 79.768ZM238.893 83.352C235.906 83.352 232.749 82.8827 229.421 81.944C226.178 81.0907 223.277 79.64 220.717 77.592C218.242 75.544 216.578 72.8133 215.725 69.4C215.64 68.9733 215.554 68.504 215.469 67.992C215.469 67.48 215.469 66.968 215.469 66.456C215.469 63.8107 216.066 61.2507 217.261 58.776C218.456 56.3013 219.906 54.424 221.613 53.144H221.741C221.912 53.144 222.125 53.3573 222.381 53.784C222.722 54.1253 222.722 54.3813 222.381 54.552C221.528 55.4053 220.888 56.3867 220.461 57.496C220.12 58.52 219.949 59.6293 219.949 60.824C219.949 62.4453 220.205 64.1093 220.717 65.816C221.314 67.4373 222.04 68.8453 222.893 70.04C225.026 73.0267 227.97 75.416 231.725 77.208C235.565 78.9147 239.32 79.768 242.989 79.768C248.024 79.768 251.906 78.2747 254.637 75.288C257.453 72.3013 258.861 68.632 258.861 64.28C258.861 61.6347 258.349 58.9893 257.325 56.344C255.96 52.6747 254.125 49.0907 251.821 45.592C249.602 42.008 247.554 38.5093 245.677 35.096C244.056 32.024 243.245 28.9093 243.245 25.752C243.245 22.424 244.269 19.224 246.317 16.152C248.365 13.4213 251.053 11.2453 254.381 9.62399C257.794 7.91733 261.25 7.064 264.749 7.064C267.138 7.064 269.442 7.49066 271.661 8.34399C273.88 9.19733 275.885 10.6053 277.677 12.568C278.189 13.336 278.445 14.3173 278.445 15.512C278.445 17.2187 278.104 18.5413 277.421 19.48C276.653 20.5893 275.8 22.04 274.861 23.832C273.922 25.624 273.368 26.8613 273.197 27.544C273.026 27.6293 272.6 27.8 271.917 28.056C271.32 28.2267 270.936 28.184 270.765 27.928C271.106 27.2453 271.576 26.008 272.173 24.216C272.77 22.424 273.069 20.8027 273.069 19.352C273.069 18.4133 273.026 17.3893 272.941 16.28C272.941 15.0853 272.386 14.0613 271.277 13.208C270.253 12.2693 268.93 11.4587 267.309 10.776C265.688 10.0933 263.725 9.752 261.421 9.752C256.728 9.752 253.144 11.1173 250.669 13.848C248.194 16.5787 246.957 19.5653 246.957 22.808C246.957 24.4293 247.298 26.0507 247.981 27.672C249.261 30.744 251.053 33.6453 253.357 36.376C255.661 39.1067 257.922 41.9227 260.141 44.824C262.445 47.64 264.237 50.712 265.517 54.04C266.37 56.2587 266.797 58.52 266.797 60.824C266.797 64.152 265.944 67.1813 264.237 69.912C262.616 72.6427 260.397 75.032 257.581 77.08C254.85 79.0427 251.864 80.5787 248.621 81.688C245.378 82.7973 242.136 83.352 238.893 83.352ZM282.947 79.384C282.094 79.384 281.368 79.2133 280.771 78.872C280.174 78.5307 279.875 77.8907 279.875 76.952C279.875 75.7573 280.174 74.3493 280.771 72.728C281.454 71.1067 282.179 69.4853 282.947 67.864C283.715 66.2427 284.355 64.92 284.867 63.896C285.294 63.128 285.848 61.9333 286.531 60.312C287.299 58.6053 288.067 56.856 288.835 55.064C289.688 53.1867 290.371 51.608 290.883 50.328C291.48 49.048 291.779 48.408 291.779 48.408C291.011 49.2613 289.987 50.456 288.707 51.992C287.512 53.528 286.19 55.1493 284.739 56.856C283.374 58.4773 282.094 60.0133 280.899 61.464C279.79 62.9147 278.979 63.9813 278.467 64.664C278.211 65.0053 277.998 65.176 277.827 65.176C277.656 65.176 277.571 64.9627 277.571 64.536C277.571 63.8533 277.784 63.2133 278.211 62.616C279.235 61.336 280.472 59.8 281.923 58.008C283.374 56.1307 284.824 54.2533 286.275 52.376C287.811 50.4987 289.134 48.8347 290.243 47.384C289.56 47.384 288.664 47.4267 287.555 47.512C286.531 47.5973 285.592 47.7253 284.739 47.896C283.886 47.9813 283.416 48.024 283.331 48.024C282.904 48.024 282.947 47.6827 283.459 47C283.971 46.3173 284.654 45.6347 285.507 44.952C286.36 44.2693 287 43.928 287.427 43.928C287.512 43.928 288.195 43.9707 289.475 44.056C290.755 44.056 291.694 44.056 292.291 44.056C293.998 41.752 295.662 39.1067 297.283 36.12C298.99 33.1333 300.654 29.848 302.275 26.264C302.958 26.1787 304.11 25.7093 305.731 24.856C307.438 23.9173 308.76 22.9787 309.699 22.04C310.126 21.6133 310.467 21.4 310.723 21.4C311.235 21.4 311.235 21.7413 310.723 22.424C310.126 23.1067 309.102 24.5573 307.651 26.776C306.2 28.9093 304.579 31.512 302.787 34.584C300.995 37.5707 299.288 40.728 297.667 44.056H308.035C308.974 44.056 309.443 44.184 309.443 44.44C309.443 44.7813 308.803 45.1227 307.523 45.464C306.072 45.8907 304.536 46.1467 302.915 46.232C301.379 46.3173 299.928 46.488 298.563 46.744C297.283 47 296.344 47.5547 295.747 48.408C295.235 49.0053 294.51 50.2853 293.571 52.248C292.632 54.2107 291.608 56.472 290.499 59.032C289.475 61.5067 288.579 64.024 287.811 66.584C287.043 69.0587 286.574 71.1493 286.403 72.856V73.368C286.403 74.0507 286.616 74.6053 287.043 75.032C287.47 75.4587 287.896 75.672 288.323 75.672C289.432 75.672 290.84 74.9893 292.547 73.624C294.339 72.2587 296.174 70.6373 298.051 68.76C299.928 66.7973 301.55 65.0053 302.915 63.384C303.512 62.7013 304.024 62.0613 304.451 61.464C304.963 60.8667 305.262 60.4827 305.347 60.312C305.518 60.6533 305.603 60.9093 305.603 61.08C305.603 61.592 305.432 62.1467 305.091 62.744C304.835 63.3413 304.536 63.8533 304.195 64.28C302.574 66.4133 300.611 68.6747 298.307 71.064C296.003 73.368 293.528 75.3307 290.883 76.952C288.323 78.5733 285.678 79.384 282.947 79.384ZM310.37 79.256C309.005 79.256 307.767 79 306.658 78.488C305.634 77.8907 305.122 76.6533 305.122 74.776C305.122 71.7893 305.89 68.8027 307.426 65.816C308.962 62.744 310.541 60.056 312.162 57.752C313.613 55.7893 315.234 53.9547 317.026 52.248C318.903 50.456 320.909 48.92 323.042 47.64C324.407 46.7867 326.242 45.8907 328.546 44.952C330.935 43.928 332.941 43.416 334.562 43.416C335.927 43.416 337.122 43.8 338.146 44.568C339.17 45.2507 339.682 46.5307 339.682 48.408C339.682 51.3093 338.914 54.296 337.378 57.368C335.927 60.3547 334.391 63 332.77 65.304C332.002 66.328 331.234 67.3093 330.466 68.248C329.698 69.1013 328.845 69.9973 327.906 70.936C331.063 70.936 333.965 70.04 336.61 68.248C339.255 66.3707 341.559 64.1093 343.522 61.464L343.778 61.208C344.034 61.208 344.162 61.464 344.162 61.976C344.162 62.5733 343.991 63.128 343.65 63.64C341.943 66.0293 339.81 68.1627 337.25 70.04C334.69 71.832 331.789 72.728 328.546 72.728C328.205 72.728 327.863 72.728 327.522 72.728C327.181 72.728 326.839 72.6853 326.498 72.6C321.719 77.0373 316.343 79.256 310.37 79.256ZM313.698 77.08C314.893 77.08 316.173 76.6533 317.538 75.8C318.989 74.9467 320.098 74.136 320.866 73.368C322.317 71.9173 323.639 70.3813 324.834 68.76C326.029 67.0533 327.138 65.3467 328.162 63.64C329.357 61.592 330.551 59.16 331.746 56.344C332.941 53.528 333.538 50.8827 333.538 48.408C333.538 46.4453 332.855 45.464 331.49 45.464C330.381 45.464 329.015 45.9333 327.394 46.872C325.858 47.8107 324.706 48.664 323.938 49.432C321.037 52.4187 318.605 55.6613 316.642 59.16C315.533 61.1227 314.338 63.4267 313.058 66.072C311.778 68.7173 311.138 71.1493 311.138 73.368C311.138 73.7093 311.138 74.0507 311.138 74.392C311.223 74.648 311.309 74.9467 311.394 75.288C311.735 76.4827 312.503 77.08 313.698 77.08ZM348.085 80.792C347.744 80.792 347.744 80.4507 348.085 79.768C348.512 79 348.896 78.1467 349.237 77.208C349.664 76.2693 350.09 75.2453 350.517 74.136C351.37 72.088 352.309 69.784 353.333 67.224C354.357 64.664 355.338 62.1893 356.277 59.8C357.216 57.3253 358.026 55.2347 358.709 53.528C359.477 51.736 359.989 50.584 360.245 50.072C359.05 51.352 357.6 52.9733 355.893 54.936C354.272 56.8133 352.736 58.648 351.285 60.44C349.834 62.232 348.725 63.64 347.957 64.664C347.701 65.0053 347.488 65.176 347.317 65.176C347.146 65.176 347.061 64.9627 347.061 64.536C347.061 63.8533 347.274 63.2133 347.701 62.616C349.322 60.568 351.114 58.264 353.077 55.704C355.125 53.144 356.96 50.7973 358.581 48.664C360.202 46.4453 361.226 44.9947 361.653 44.312C362.592 44.1413 363.957 43.8853 365.749 43.544C367.626 43.2027 368.906 42.7333 369.589 42.136C369.845 41.88 370.101 41.752 370.357 41.752C370.528 41.752 370.613 41.9227 370.613 42.264C370.698 42.52 370.613 42.8187 370.357 43.16C369.845 43.672 369.077 44.7813 368.053 46.488C367.114 48.1947 366.048 50.1573 364.853 52.376C363.658 54.5947 362.506 56.728 361.397 58.776C362.25 57.496 363.36 56.0027 364.725 54.296C366.176 52.504 367.754 50.7973 369.461 49.176C371.168 47.4693 372.874 46.0613 374.581 44.952C376.373 43.8427 378.037 43.288 379.573 43.288C380.682 43.288 381.621 43.544 382.389 44.056C383.157 44.4827 383.754 45.2933 384.181 46.488C384.437 47.0853 384.565 47.768 384.565 48.536C384.565 49.9867 384.181 51.3947 383.413 52.76C382.73 54.04 382.218 55.0213 381.877 55.704C381.792 55.96 381.493 56.216 380.981 56.472C380.469 56.6427 380.256 56.5573 380.341 56.216C380.426 55.7893 380.469 55.3627 380.469 54.936C380.554 54.5093 380.597 54.04 380.597 53.528C380.597 52.0773 380.298 50.7547 379.701 49.56C379.189 48.3653 378.208 47.768 376.757 47.768C375.392 47.768 373.728 48.6213 371.765 50.328C369.802 52.0347 367.84 53.9973 365.877 56.216C363.402 59.1173 361.44 61.8907 359.989 64.536C358.538 67.096 357.344 69.6133 356.405 72.088C355.893 73.4533 355.381 74.8187 354.869 76.184C354.357 77.464 353.973 78.488 353.717 79.256C352.608 79.3413 351.498 79.5973 350.389 80.024C349.28 80.536 348.512 80.792 348.085 80.792ZM394.608 80.024C391.109 80.024 388.677 79.3413 387.312 77.976C385.947 76.6107 385.264 74.9467 385.264 72.984C385.264 70.5093 385.904 67.864 387.184 65.048C388.549 62.232 389.829 59.8427 391.024 57.88C392.389 55.832 394.224 53.6987 396.528 51.48C398.832 49.2613 401.349 47.384 404.08 45.848C406.811 44.312 409.456 43.544 412.016 43.544C414.235 43.544 415.771 44.0987 416.624 45.208C417.477 46.232 417.904 47.4693 417.904 48.92C417.904 51.5653 417.093 53.7413 415.472 55.448C413.936 57.1547 412.016 58.5627 409.712 59.672C407.408 60.696 405.189 61.5493 403.056 62.232C401.776 62.5733 400.283 62.9147 398.576 63.256C396.869 63.5973 395.248 63.768 393.712 63.768C393.115 65.304 392.645 66.7973 392.304 68.248C391.963 69.6987 391.792 71.0213 391.792 72.216C391.792 73.6667 392.133 74.8613 392.816 75.8C393.584 76.7387 394.821 77.208 396.528 77.208C397.211 77.208 398.021 77.1227 398.96 76.952C399.899 76.7813 400.923 76.5253 402.032 76.184C404.592 75.3307 407.109 73.9653 409.584 72.088C412.059 70.2107 414.32 68.2053 416.368 66.072C418.501 63.8533 420.123 62.0187 421.232 60.568C421.488 60.824 421.616 61.1227 421.616 61.464C421.616 61.8907 421.317 62.5733 420.72 63.512C419.013 65.9013 416.795 68.376 414.064 70.936C411.333 73.496 408.304 75.672 404.976 77.464C401.648 79.1707 398.192 80.024 394.608 80.024ZM394.736 61.208C395.845 61.2933 397.083 61.2933 398.448 61.208C399.899 61.0373 401.307 60.7387 402.672 60.312C406.171 59.288 408.688 57.6667 410.224 55.448C411.845 53.144 412.656 51.096 412.656 49.304C412.656 48.28 412.443 47.4267 412.016 46.744C411.589 46.0613 410.907 45.72 409.968 45.72C407.493 45.72 405.275 46.6587 403.312 48.536C401.349 50.328 399.643 52.4187 398.192 54.808C396.741 57.1973 395.589 59.3307 394.736 61.208Z" fill="#1C487C"/>
</g>
<defs>
<filter id="filter0_d_1_15" x="0.744019" y="0.280029" width="424.872" height="91.072" filterUnits="userSpaceOnUse" color-interpolation-filters="sRGB">
<feFlood flood-opacity="0" result="BackgroundImageFix"/>
<feColorMatrix in="SourceAlpha" type="matrix" values="0 0 0 0 0 0 0 0 0 0 0 0 0 0 0 0 0 0 127 0" result="hardAlpha"/>
<feOffset dy="4"/>
<feGaussianBlur stdDeviation="2"/>
<feComposite in2="hardAlpha" operator="out"/>
<feColorMatrix type="matrix" values="0 0 0 0 0 0 0 0 0 0 0 0 0 0 0 0 0 0 0.25 0"/>
<feBlend mode="normal" in2="BackgroundImageFix" result="effect1_dropShadow_1_15"/>
<feBlend mode="normal" in="SourceGraphic" in2="effect1_dropShadow_1_15" result="shape"/>
</filter>
</defs>
</svg>
