<svg width="419" height="83" viewBox="0 0 419 83" fill="none" xmlns="http://www.w3.org/2000/svg">
<path d="M2.28 81.432C2.10933 81.432 1.81067 81.3467 1.384 81.176C0.957333 81.0907 0.744 80.92 0.744 80.664C0.744 80.5787 0.786667 80.4933 0.872 80.408C0.957333 80.3227 1 80.28 1 80.28C1.59733 80.1093 1.85333 80.024 1.768 80.024C1.768 80.1093 2.06667 80.0667 2.664 79.896C4.11467 79.384 5.352 78.6587 6.376 77.72C7.48533 76.696 8.424 75.5013 9.192 74.136C13.2027 67.48 17.0427 60.7387 20.712 53.912C24.3813 47 28.0507 40.1307 31.72 33.304C32.744 31.512 33.7253 29.6773 34.664 27.8C35.6027 25.9227 36.5413 24.0453 37.48 22.168C37.9067 21.144 38.3333 20.12 38.76 19.096C39.272 18.072 39.8267 17.0907 40.424 16.152C41.1067 14.9573 42.1733 13.9333 43.624 13.08C45.16 12.1413 46.6107 11.4587 47.976 11.032H44.904C43.1973 11.032 40.8507 11.16 37.864 11.416C34.9627 11.5867 31.8907 11.928 28.648 12.44C25.4053 12.952 22.504 13.72 19.944 14.744C17.4693 15.768 15.7627 17.1333 14.824 18.84C13.9707 20.376 13.544 21.8693 13.544 23.32C13.544 25.0267 13.928 26.1787 14.696 26.776C15.464 27.3733 15.848 27.7573 15.848 27.928C15.848 28.0987 15.72 28.2693 15.464 28.44C15.208 28.6107 14.9947 28.696 14.824 28.696C14.312 28.696 13.672 28.184 12.904 27.16C12.136 26.136 11.4107 25.0267 10.728 23.832C10.1307 22.552 9.74667 21.6987 9.576 21.272C9.32 20.3333 9.192 19.3947 9.192 18.456C9.192 16.152 9.96 14.4027 11.496 13.208C13.1173 11.928 15.08 11.032 17.384 10.52C19.688 10.008 21.992 9.70933 24.296 9.62399C26.6853 9.45333 28.648 9.368 30.184 9.368C34.4507 9.368 38.7173 9.28266 42.984 9.112C47.2507 8.856 51.4747 8.728 55.656 8.728C59.6667 8.728 63.592 9.02666 67.432 9.62399C71.3573 10.136 74.8987 11.2027 78.056 12.824C81.2133 14.4453 83.7307 16.7493 85.608 19.736C87.5707 22.7227 88.552 26.648 88.552 31.512C88.552 35.9493 87.6987 40.5147 85.992 45.208C84.3707 49.816 82.3227 53.9547 79.848 57.624C69.4373 73.24 54.8453 81.048 36.072 81.048C33.1707 81.048 30.184 80.7493 27.112 80.152C24.1253 79.5547 21.3093 78.5733 18.664 77.208C18.0667 76.8667 17.4267 76.6107 16.744 76.44C16.1467 76.184 15.5067 76.056 14.824 76.056C13.3733 76.056 11.9227 76.5253 10.472 77.464C9.02133 78.3173 7.61333 79.1707 6.248 80.024C4.88267 80.9627 3.56 81.432 2.28 81.432ZM34.536 79.256C40.936 79.256 46.9093 78.0187 52.456 75.544C58.0027 73.0693 62.8667 69.6133 67.048 65.176C71.2293 60.6533 74.5147 55.4907 76.904 49.688C78.0133 46.9573 78.9093 44.0987 79.592 41.112C80.36 38.1253 80.744 35.1813 80.744 32.28C80.744 25.624 78.696 20.504 74.6 16.92C70.5893 13.2507 65.2987 11.416 58.728 11.416C57.1067 11.416 55.4 11.5867 53.608 11.928C51.9013 12.2693 50.4933 13.08 49.384 14.36C48.2747 15.7253 47.208 17.2187 46.184 18.84C45.2453 20.4613 44.3067 22.04 43.368 23.576C41.4053 26.9893 39.528 30.5307 37.736 34.2C36.0293 37.784 34.28 41.3253 32.488 44.824C29.672 50.2 26.8987 55.6187 24.168 61.08C23.5707 62.2747 22.9307 63.512 22.248 64.792C21.6507 65.9867 21.0533 67.1813 20.456 68.376C20.2853 68.8027 20.1147 69.272 19.944 69.784C19.7733 70.2107 19.688 70.7227 19.688 71.32C19.688 72.4293 20.0293 73.368 20.712 74.136C21.3947 74.904 22.12 75.6293 22.888 76.312C24.5093 77.5067 26.3867 78.3173 28.52 78.744C30.6533 79.0853 32.6587 79.256 34.536 79.256ZM108.005 79.384C107.152 79.384 106.426 79.2133 105.829 78.872C105.232 78.5307 104.933 77.8907 104.933 76.952C104.933 75.7573 105.232 74.392 105.829 72.856C106.426 71.32 107.109 69.8267 107.877 68.376C108.645 66.84 109.328 65.6027 109.925 64.664C106.938 67.8213 103.824 70.808 100.581 73.624C98.9597 74.9893 97.1677 76.2693 95.205 77.464C93.2423 78.6587 91.1517 79.256 88.933 79.256C88.0797 79.256 87.4823 79 87.141 78.488C86.7997 77.8907 86.629 77.208 86.629 76.44C86.629 76.0133 86.6717 75.7147 86.757 75.544C87.1837 72.216 88.2503 68.76 89.957 65.176C91.6637 61.592 93.7543 58.2213 96.229 55.064C98.7037 51.9067 101.221 49.3467 103.781 47.384C106.682 45.1653 109.882 44.056 113.381 44.056H128.101C128.528 44.056 128.741 44.2267 128.741 44.568C128.741 45.2507 128.357 45.592 127.589 45.592C126.736 45.592 125.882 46.1467 125.029 47.256C124.176 48.28 123.536 49.1333 123.109 49.816C122.512 50.7547 121.573 52.3333 120.293 54.552C119.013 56.7707 117.69 59.2027 116.325 61.848C115.045 64.408 113.936 66.7973 112.997 69.016C112.058 71.2347 111.589 72.856 111.589 73.88C111.589 75.0747 112.186 75.672 113.381 75.672C114.661 75.672 116.112 75.0747 117.733 73.88C119.354 72.6853 120.976 71.2347 122.597 69.528C124.304 67.736 125.84 65.9867 127.205 64.28C128.656 62.488 129.808 61.08 130.661 60.056C131.173 60.568 131.13 61.2933 130.533 62.232C130.021 63.0853 129.552 63.768 129.125 64.28C127.418 66.4987 125.456 68.8027 123.237 71.192C121.018 73.496 118.586 75.4587 115.941 77.08C113.381 78.616 110.736 79.384 108.005 79.384ZM94.181 74.904C95.205 74.904 96.613 74.1787 98.405 72.728C100.282 71.192 102.288 69.3147 104.421 67.096C106.554 64.792 108.56 62.4027 110.437 59.928C112.314 57.368 113.85 55.064 115.045 53.016C116.325 50.8827 116.965 49.2613 116.965 48.152C116.965 47.2133 116.666 46.5733 116.069 46.232C115.557 45.8907 114.874 45.72 114.021 45.72C112.656 45.72 111.162 46.232 109.541 47.256C108.005 48.1947 106.768 49.1333 105.829 50.072C104.805 51.0107 103.568 52.504 102.117 54.552C100.752 56.5147 99.3863 58.6907 98.021 61.08C96.6557 63.4693 95.5037 65.7733 94.565 67.992C93.6263 70.2107 93.157 72.0027 93.157 73.368C93.157 74.392 93.4983 74.904 94.181 74.904ZM141.022 81.048C139.486 81.048 137.865 80.8347 136.158 80.408C134.451 79.9813 132.915 79.2987 131.55 78.36C130.27 77.336 129.417 75.9707 128.99 74.264C128.905 74.008 128.862 73.624 128.862 73.112C128.862 71.9173 129.118 70.5947 129.63 69.144C130.227 67.6933 130.953 66.6693 131.806 66.072C132.147 65.9013 132.403 65.9013 132.574 66.072C132.83 66.2427 132.873 66.4133 132.702 66.584C132.617 66.84 132.489 67.1813 132.318 67.608C132.147 67.9493 132.019 68.3333 131.934 68.76C131.678 70.9787 132.147 72.9413 133.342 74.648C133.854 75.3307 134.451 75.9707 135.134 76.568C135.902 77.1653 136.627 77.6773 137.31 78.104C137.907 78.4453 138.633 78.7013 139.486 78.872C140.339 78.9573 141.193 79 142.046 79C143.411 79 144.734 78.8293 146.014 78.488C147.294 78.1467 148.233 77.592 148.83 76.824C149.939 75.4587 150.494 73.9227 150.494 72.216C150.494 70.936 150.153 69.5707 149.47 68.12C148.787 66.6693 147.721 65.1333 146.27 63.512C145.331 62.488 144.435 61.3787 143.582 60.184C142.729 58.9893 142.174 57.7093 141.918 56.344C141.833 56.088 141.747 55.832 141.662 55.576C141.662 55.32 141.662 55.064 141.662 54.808C140.553 56.4293 139.401 57.9653 138.206 59.416C137.097 60.7813 136.115 61.976 135.262 63C134.921 63.512 134.622 63.768 134.366 63.768C134.195 63.768 134.11 63.5973 134.11 63.256C134.11 62.488 134.451 61.6773 135.134 60.824C135.817 60.056 136.585 59.1173 137.438 58.008C138.291 56.8133 138.974 55.8747 139.486 55.192C140.937 53.0587 142.003 51.3947 142.686 50.2C143.454 48.92 144.265 47.768 145.118 46.744C146.057 45.6347 147.209 44.7387 148.574 44.056C150.025 43.3733 151.518 43.032 153.054 43.032C154.846 43.032 156.467 43.3307 157.918 43.928C159.454 44.44 160.265 45.8053 160.35 48.024C160.35 49.048 160.137 50.1147 159.71 51.224C159.369 52.248 158.985 53.2293 158.558 54.168C158.302 54.68 157.918 55.064 157.406 55.32C156.979 55.4907 156.766 55.4053 156.766 55.064C156.766 54.7227 156.809 54.3387 156.894 53.912C156.979 53.4853 157.022 53.1013 157.022 52.76C157.022 51.3093 156.766 50.0293 156.254 48.92C155.827 47.7253 155.187 46.872 154.334 46.36C153.481 45.7627 152.585 45.464 151.646 45.464C150.281 45.464 148.958 46.0187 147.678 47.128C146.398 48.152 145.758 49.5173 145.758 51.224C145.758 51.3947 145.758 51.608 145.758 51.864C145.758 52.12 145.801 52.3333 145.886 52.504C146.227 53.8693 147.251 55.4053 148.958 57.112C150.665 58.8187 151.987 60.312 152.926 61.592C154.547 63.8107 155.358 66.072 155.358 68.376C155.358 70.68 154.675 72.8133 153.31 74.776C152.03 76.6533 150.281 78.1467 148.062 79.256C145.929 80.4507 143.582 81.048 141.022 81.048ZM187.156 79.768C185.876 79.768 184.724 79.512 183.7 79C182.761 78.488 182.292 77.5493 182.292 76.184C182.292 75.416 182.463 74.5627 182.804 73.624C183.572 71.6613 184.596 69.272 185.876 66.456C187.241 63.64 188.607 60.9093 189.972 58.264C191.337 55.5333 192.404 53.3147 193.172 51.608C193.684 50.584 193.94 49.8587 193.94 49.432C193.94 48.664 193.513 48.4933 192.66 48.92C191.807 49.3467 190.868 49.944 189.844 50.712C188.82 51.48 188.052 52.0773 187.54 52.504C185.321 54.552 182.975 56.984 180.5 59.8C178.111 62.5307 175.892 65.432 173.844 68.504C171.881 71.4907 170.345 74.4773 169.236 77.464C169.151 77.976 168.596 78.4027 167.572 78.744C166.548 79.0853 165.609 79.256 164.756 79.256C163.391 79.256 162.879 78.8293 163.22 77.976C165.183 73.5387 167.188 68.632 169.236 63.256C171.369 57.88 173.759 52.376 176.404 46.744C178.367 42.4773 180.543 38.0827 182.932 33.56C185.407 29.0373 188.137 24.728 191.124 20.632C194.111 16.4507 197.396 12.7813 200.98 9.62399C204.137 6.89333 207.593 4.67466 211.348 2.96799C215.188 1.176 219.327 0.279999 223.764 0.279999C225.727 0.279999 227.433 0.706665 228.884 1.56C230.335 2.328 231.145 3.736 231.316 5.784V6.936C231.316 8.13066 231.188 9.32533 230.932 10.52C230.847 10.8613 230.505 11.032 229.908 11.032C229.652 11.032 229.567 10.9893 229.652 10.904C229.993 8.68533 229.396 7.10666 227.86 6.168C226.409 5.22933 224.532 4.75999 222.228 4.75999C218.047 4.75999 214.207 5.52799 210.708 7.064C207.209 8.6 203.967 10.648 200.98 13.208C196.372 17.2187 192.361 22.3387 188.948 28.568C185.535 34.7973 182.591 41.1547 180.116 47.64C178.921 50.7973 177.727 53.9547 176.532 57.112C175.423 60.2693 174.356 63.2133 173.332 65.944C177.172 60.824 180.841 56.4293 184.34 52.76C187.924 49.0907 191.039 46.488 193.684 44.952C195.817 43.7573 197.737 43.16 199.444 43.16C201.065 43.16 201.876 43.8427 201.876 45.208C201.876 46.4027 201.279 47.9387 200.084 49.816C199.487 50.7547 198.548 52.3333 197.268 54.552C196.073 56.7707 194.793 59.2027 193.428 61.848C192.148 64.408 191.039 66.7973 190.1 69.016C189.161 71.2347 188.692 72.856 188.692 73.88C188.692 75.2453 189.289 75.928 190.484 75.928C191.167 75.928 191.935 75.7147 192.788 75.288C193.727 74.8613 194.409 74.4773 194.836 74.136C197.14 72.4293 199.401 70.3387 201.62 67.864C203.839 65.3893 205.716 63.2133 207.252 61.336C207.337 61.2507 207.38 61.3787 207.38 61.72C207.38 62.0613 207.295 62.5733 207.124 63.256C207.039 63.8533 206.783 64.3653 206.356 64.792C205.417 66.072 204.436 67.3093 203.412 68.504C202.473 69.6133 201.535 70.7227 200.596 71.832C198.975 73.7093 197.012 75.5013 194.708 77.208C192.489 78.9147 189.972 79.768 187.156 79.768ZM238.349 82.712C233.826 82.712 229.474 82.0293 225.293 80.664C221.197 79.384 217.869 77.208 215.309 74.136C212.749 71.064 211.469 66.9253 211.469 61.72C211.469 56.1733 212.536 50.7547 214.669 45.464C216.802 40.1733 219.661 35.2667 223.245 30.744C226.829 26.136 230.84 22.168 235.277 18.84C239.202 15.8533 243.725 13.4213 248.845 11.544C254.05 9.66666 259.213 8.728 264.333 8.728C266.466 8.728 268.472 8.89866 270.349 9.24C272.226 9.49599 274.146 10.0933 276.109 11.032C277.816 11.8 279.181 12.7813 280.205 13.976C281.229 15.0853 281.741 16.3653 281.741 17.816C281.741 17.9867 281.741 18.2 281.741 18.456C281.741 18.712 281.698 18.9253 281.613 19.096C281.272 20.4613 280.461 22.04 279.181 23.832C277.986 25.5387 277.048 27.3307 276.365 29.208C276.28 29.5493 275.81 29.848 274.957 30.104C274.104 30.2747 273.762 30.1893 273.933 29.848C274.616 28.7387 275.128 27.3733 275.469 25.752C275.896 24.1307 276.109 22.5093 276.109 20.888C276.109 19.6933 275.981 18.584 275.725 17.56C275.554 16.4507 275.213 15.512 274.701 14.744C273.848 13.208 272.525 12.1413 270.733 11.544C268.941 10.9467 267.021 10.648 264.973 10.648C263.01 10.648 261.048 10.8613 259.085 11.288C257.122 11.7147 255.416 12.184 253.965 12.696C249.016 14.488 244.28 17.304 239.757 21.144C235.746 24.6427 232.162 28.696 229.005 33.304C225.933 37.912 223.501 42.648 221.709 47.512C219.917 52.376 219.021 57.0267 219.021 61.464C219.021 65.9867 220.002 69.5707 221.965 72.216C223.928 74.8613 226.488 76.7387 229.645 77.848C232.802 78.9573 236.216 79.512 239.885 79.512C243.128 79.512 246.328 79.1707 249.485 78.488C252.728 77.8053 255.672 76.952 258.317 75.928C262.84 74.2213 266.893 72.1307 270.477 69.656C274.146 67.1813 277.56 63.9813 280.717 60.056C281.144 59.6293 281.442 59.416 281.613 59.416C281.869 59.416 281.997 59.5867 281.997 59.928C281.997 60.6107 281.656 61.4213 280.973 62.36C278.072 66.2853 274.786 69.5707 271.117 72.216C267.448 74.8613 263.522 77.0373 259.341 78.744C256.525 79.8533 253.24 80.792 249.485 81.56C245.816 82.328 242.104 82.712 238.349 82.712ZM285.625 79.256C284.26 79.256 283.022 79 281.913 78.488C280.889 77.8907 280.377 76.6533 280.377 74.776C280.377 71.7893 281.145 68.8027 282.681 65.816C284.217 62.744 285.796 60.056 287.417 57.752C288.868 55.7893 290.489 53.9547 292.281 52.248C294.158 50.456 296.164 48.92 298.297 47.64C299.662 46.7867 301.497 45.8907 303.801 44.952C306.19 43.928 308.196 43.416 309.817 43.416C311.182 43.416 312.377 43.8 313.401 44.568C314.425 45.2507 314.937 46.5307 314.937 48.408C314.937 51.3093 314.169 54.296 312.633 57.368C311.182 60.3547 309.646 63 308.025 65.304C307.257 66.328 306.489 67.3093 305.721 68.248C304.953 69.1013 304.1 69.9973 303.161 70.936C306.318 70.936 309.22 70.04 311.865 68.248C314.51 66.3707 316.814 64.1093 318.777 61.464L319.033 61.208C319.289 61.208 319.417 61.464 319.417 61.976C319.417 62.5733 319.246 63.128 318.905 63.64C317.198 66.0293 315.065 68.1627 312.505 70.04C309.945 71.832 307.044 72.728 303.801 72.728C303.46 72.728 303.118 72.728 302.777 72.728C302.436 72.728 302.094 72.6853 301.753 72.6C296.974 77.0373 291.598 79.256 285.625 79.256ZM288.953 77.08C290.148 77.08 291.428 76.6533 292.793 75.8C294.244 74.9467 295.353 74.136 296.121 73.368C297.572 71.9173 298.894 70.3813 300.089 68.76C301.284 67.0533 302.393 65.3467 303.417 63.64C304.612 61.592 305.806 59.16 307.001 56.344C308.196 53.528 308.793 50.8827 308.793 48.408C308.793 46.4453 308.11 45.464 306.745 45.464C305.636 45.464 304.27 45.9333 302.649 46.872C301.113 47.8107 299.961 48.664 299.193 49.432C296.292 52.4187 293.86 55.6613 291.897 59.16C290.788 61.1227 289.593 63.4267 288.313 66.072C287.033 68.7173 286.393 71.1493 286.393 73.368C286.393 73.7093 286.393 74.0507 286.393 74.392C286.478 74.648 286.564 74.9467 286.649 75.288C286.99 76.4827 287.758 77.08 288.953 77.08ZM333.068 79.768C331.873 79.768 330.849 79.3413 329.996 78.488C329.143 77.6347 328.716 76.1413 328.716 74.008C328.716 72.1307 328.844 69.912 329.1 67.352C329.441 64.792 329.911 62.1893 330.508 59.544C331.105 56.8133 331.788 54.424 332.556 52.376C331.105 54.5093 329.484 56.728 327.692 59.032C325.9 61.2507 324.407 63.128 323.212 64.664C322.956 65.0053 322.743 65.176 322.572 65.176C322.401 65.176 322.316 64.9627 322.316 64.536C322.316 63.8533 322.529 63.2133 322.956 62.616C324.748 60.1413 326.753 57.3253 328.972 54.168C331.276 51.0107 333.239 48.152 334.86 45.592C335.799 45.4213 336.908 45.1653 338.188 44.824C339.553 44.4827 340.535 44.0133 341.132 43.416C341.559 43.16 341.815 43.032 341.9 43.032C342.156 43.032 342.284 43.2027 342.284 43.544C342.284 43.8 342.156 44.0987 341.9 44.44C341.132 45.5493 340.279 47.2987 339.34 49.688C338.401 51.992 337.505 54.5947 336.652 57.496C335.799 60.312 335.073 63.0853 334.476 65.816C333.964 68.5467 333.708 70.808 333.708 72.6C333.708 73.9653 333.921 74.904 334.348 75.416C334.86 75.928 335.415 76.184 336.012 76.184C337.207 76.184 338.444 75.6293 339.724 74.52C341.089 73.4107 342.412 72.0453 343.692 70.424C345.057 68.8027 346.252 67.224 347.276 65.688C348.3 64.152 349.068 62.9573 349.58 62.104C351.287 59.3733 352.908 56.4293 354.444 53.272C356.065 50.0293 357.431 47.4693 358.54 45.592C359.479 45.4213 360.588 45.1653 361.868 44.824C363.233 44.4827 364.257 44.0133 364.94 43.416C365.196 43.16 365.409 43.032 365.58 43.032C365.836 43.032 365.964 43.2027 365.964 43.544C366.049 43.8 365.964 44.0987 365.708 44.44C364.94 45.5493 364.129 47.256 363.276 49.56C362.423 51.864 361.569 54.424 360.716 57.24C359.948 59.9707 359.308 62.7013 358.796 65.432C358.284 68.0773 358.028 70.3387 358.028 72.216C358.028 74.776 358.967 76.056 360.844 76.056C362.124 76.056 363.532 75.5867 365.068 74.648C366.689 73.7093 368.012 72.728 369.036 71.704C371.937 68.7173 374.369 65.7733 376.332 62.872C378.295 59.9707 379.959 56.6427 381.324 52.888C381.836 51.608 382.177 50.4987 382.348 49.56C382.519 48.536 382.604 47.5973 382.604 46.744C382.604 45.5493 382.391 44.6107 381.964 43.928C381.623 43.16 381.239 42.7333 380.812 42.648C380.385 42.4773 380.172 42.264 380.172 42.008C380.172 41.8373 380.385 41.6667 380.812 41.496C381.239 41.24 381.708 41.1547 382.22 41.24C383.585 41.5813 384.737 42.2213 385.676 43.16C386.7 44.0133 387.212 45.2933 387.212 47C387.212 48.3653 386.913 49.816 386.316 51.352C385.121 54.5093 383.372 57.7947 381.068 61.208C378.849 64.536 376.332 67.6507 373.516 70.552C370.7 73.4533 367.756 75.8 364.684 77.592C363.575 78.1893 362.423 78.7013 361.228 79.128C360.033 79.5547 358.881 79.768 357.772 79.768C356.407 79.768 355.212 79.3413 354.188 78.488C353.249 77.6347 352.78 76.1413 352.78 74.008C352.78 71.7893 352.993 69.144 353.42 66.072C353.932 63 354.572 60.0133 355.34 57.112C354.743 58.0507 354.145 59.0747 353.548 60.184C353.036 61.208 352.439 62.2747 351.756 63.384C349.623 66.456 347.404 69.3573 345.1 72.088C342.881 74.8187 340.961 76.6533 339.34 77.592C338.316 78.1893 337.249 78.7013 336.14 79.128C335.031 79.5547 334.007 79.768 333.068 79.768ZM399.372 81.048C397.836 81.048 396.215 80.8347 394.508 80.408C392.801 79.9813 391.265 79.2987 389.9 78.36C388.62 77.336 387.767 75.9707 387.34 74.264C387.255 74.008 387.212 73.624 387.212 73.112C387.212 71.9173 387.468 70.5947 387.98 69.144C388.577 67.6933 389.303 66.6693 390.156 66.072C390.497 65.9013 390.753 65.9013 390.924 66.072C391.18 66.2427 391.223 66.4133 391.052 66.584C390.967 66.84 390.839 67.1813 390.668 67.608C390.497 67.9493 390.369 68.3333 390.284 68.76C390.028 70.9787 390.497 72.9413 391.692 74.648C392.204 75.3307 392.801 75.9707 393.484 76.568C394.252 77.1653 394.977 77.6773 395.66 78.104C396.257 78.4453 396.983 78.7013 397.836 78.872C398.689 78.9573 399.543 79 400.396 79C401.761 79 403.084 78.8293 404.364 78.488C405.644 78.1467 406.583 77.592 407.18 76.824C408.289 75.4587 408.844 73.9227 408.844 72.216C408.844 70.936 408.503 69.5707 407.82 68.12C407.137 66.6693 406.071 65.1333 404.62 63.512C403.681 62.488 402.785 61.3787 401.932 60.184C401.079 58.9893 400.524 57.7093 400.268 56.344C400.183 56.088 400.097 55.832 400.012 55.576C400.012 55.32 400.012 55.064 400.012 54.808C398.903 56.4293 397.751 57.9653 396.556 59.416C395.447 60.7813 394.465 61.976 393.612 63C393.271 63.512 392.972 63.768 392.716 63.768C392.545 63.768 392.46 63.5973 392.46 63.256C392.46 62.488 392.801 61.6773 393.484 60.824C394.167 60.056 394.935 59.1173 395.788 58.008C396.641 56.8133 397.324 55.8747 397.836 55.192C399.287 53.0587 400.353 51.3947 401.036 50.2C401.804 48.92 402.615 47.768 403.468 46.744C404.407 45.6347 405.559 44.7387 406.924 44.056C408.375 43.3733 409.868 43.032 411.404 43.032C413.196 43.032 414.817 43.3307 416.268 43.928C417.804 44.44 418.615 45.8053 418.7 48.024C418.7 49.048 418.487 50.1147 418.06 51.224C417.719 52.248 417.335 53.2293 416.908 54.168C416.652 54.68 416.268 55.064 415.756 55.32C415.329 55.4907 415.116 55.4053 415.116 55.064C415.116 54.7227 415.159 54.3387 415.244 53.912C415.329 53.4853 415.372 53.1013 415.372 52.76C415.372 51.3093 415.116 50.0293 414.604 48.92C414.177 47.7253 413.537 46.872 412.684 46.36C411.831 45.7627 410.935 45.464 409.996 45.464C408.631 45.464 407.308 46.0187 406.028 47.128C404.748 48.152 404.108 49.5173 404.108 51.224C404.108 51.3947 404.108 51.608 404.108 51.864C404.108 52.12 404.151 52.3333 404.236 52.504C404.577 53.8693 405.601 55.4053 407.308 57.112C409.015 58.8187 410.337 60.312 411.276 61.592C412.897 63.8107 413.708 66.072 413.708 68.376C413.708 70.68 413.025 72.8133 411.66 74.776C410.38 76.6533 408.631 78.1467 406.412 79.256C404.279 80.4507 401.932 81.048 399.372 81.048Z" fill="white"/>
</svg>
