<svg width="446" height="117" viewBox="0 0 446 117" fill="none" xmlns="http://www.w3.org/2000/svg">
<path d="M2.28 104.432C2.10933 104.432 1.81067 104.347 1.384 104.176C0.957333 104.091 0.744 103.92 0.744 103.664C0.744 103.579 0.786667 103.493 0.872 103.408C0.957333 103.323 1 103.28 1 103.28C1.59733 103.109 1.85333 103.024 1.768 103.024C1.768 103.109 2.06667 103.067 2.664 102.896C4.11467 102.384 5.352 101.659 6.376 100.72C7.48533 99.696 8.424 98.5013 9.192 97.136C13.2027 90.48 17.0427 83.7387 20.712 76.912C24.3813 70 28.0507 63.1307 31.72 56.304C32.744 54.512 33.7253 52.6773 34.664 50.8C35.6027 48.9227 36.5413 47.0453 37.48 45.168C37.9067 44.144 38.3333 43.12 38.76 42.096C39.272 41.072 39.8267 40.0907 40.424 39.152C41.1067 37.9573 42.1733 36.9333 43.624 36.08C45.16 35.1413 46.6107 34.4587 47.976 34.032H44.904C43.1973 34.032 40.8507 34.16 37.864 34.416C34.9627 34.5867 31.8907 34.928 28.648 35.44C25.4053 35.952 22.504 36.72 19.944 37.744C17.4693 38.768 15.7627 40.1333 14.824 41.84C13.9707 43.376 13.544 44.8693 13.544 46.32C13.544 48.0267 13.928 49.1787 14.696 49.776C15.464 50.3733 15.848 50.7573 15.848 50.928C15.848 51.0987 15.72 51.2693 15.464 51.44C15.208 51.6107 14.9947 51.696 14.824 51.696C14.312 51.696 13.672 51.184 12.904 50.16C12.136 49.136 11.4107 48.0267 10.728 46.832C10.1307 45.552 9.74667 44.6987 9.576 44.272C9.32 43.3333 9.192 42.3947 9.192 41.456C9.192 39.152 9.96 37.4027 11.496 36.208C13.1173 34.928 15.08 34.032 17.384 33.52C19.688 33.008 21.992 32.7093 24.296 32.624C26.6853 32.4533 28.648 32.368 30.184 32.368C34.4507 32.368 38.7173 32.2827 42.984 32.112C47.2507 31.856 51.4747 31.728 55.656 31.728C59.6667 31.728 63.592 32.0267 67.432 32.624C71.3573 33.136 74.8987 34.2027 78.056 35.824C81.2133 37.4453 83.7307 39.7493 85.608 42.736C87.5707 45.7227 88.552 49.648 88.552 54.512C88.552 58.9493 87.6987 63.5147 85.992 68.208C84.3707 72.816 82.3227 76.9547 79.848 80.624C69.4373 96.24 54.8453 104.048 36.072 104.048C33.1707 104.048 30.184 103.749 27.112 103.152C24.1253 102.555 21.3093 101.573 18.664 100.208C18.0667 99.8667 17.4267 99.6107 16.744 99.44C16.1467 99.184 15.5067 99.056 14.824 99.056C13.3733 99.056 11.9227 99.5253 10.472 100.464C9.02133 101.317 7.61333 102.171 6.248 103.024C4.88267 103.963 3.56 104.432 2.28 104.432ZM34.536 102.256C40.936 102.256 46.9093 101.019 52.456 98.544C58.0027 96.0693 62.8667 92.6133 67.048 88.176C71.2293 83.6533 74.5147 78.4907 76.904 72.688C78.0133 69.9573 78.9093 67.0987 79.592 64.112C80.36 61.1253 80.744 58.1813 80.744 55.28C80.744 48.624 78.696 43.504 74.6 39.92C70.5893 36.2507 65.2987 34.416 58.728 34.416C57.1067 34.416 55.4 34.5867 53.608 34.928C51.9013 35.2693 50.4933 36.08 49.384 37.36C48.2747 38.7253 47.208 40.2187 46.184 41.84C45.2453 43.4613 44.3067 45.04 43.368 46.576C41.4053 49.9893 39.528 53.5307 37.736 57.2C36.0293 60.784 34.28 64.3253 32.488 67.824C29.672 73.2 26.8987 78.6187 24.168 84.08C23.5707 85.2747 22.9307 86.512 22.248 87.792C21.6507 88.9867 21.0533 90.1813 20.456 91.376C20.2853 91.8027 20.1147 92.272 19.944 92.784C19.7733 93.2107 19.688 93.7227 19.688 94.32C19.688 95.4293 20.0293 96.368 20.712 97.136C21.3947 97.904 22.12 98.6293 22.888 99.312C24.5093 100.507 26.3867 101.317 28.52 101.744C30.6533 102.085 32.6587 102.256 34.536 102.256ZM108.005 102.384C107.152 102.384 106.426 102.213 105.829 101.872C105.232 101.531 104.933 100.891 104.933 99.952C104.933 98.7573 105.232 97.392 105.829 95.856C106.426 94.32 107.109 92.8267 107.877 91.376C108.645 89.84 109.328 88.6027 109.925 87.664C106.938 90.8213 103.824 93.808 100.581 96.624C98.9597 97.9893 97.1677 99.2693 95.205 100.464C93.2423 101.659 91.1517 102.256 88.933 102.256C88.0797 102.256 87.4823 102 87.141 101.488C86.7997 100.891 86.629 100.208 86.629 99.44C86.629 99.0133 86.6717 98.7147 86.757 98.544C87.1837 95.216 88.2503 91.76 89.957 88.176C91.6637 84.592 93.7543 81.2213 96.229 78.064C98.7037 74.9067 101.221 72.3467 103.781 70.384C106.682 68.1653 109.882 67.056 113.381 67.056H128.101C128.528 67.056 128.741 67.2267 128.741 67.568C128.741 68.2507 128.357 68.592 127.589 68.592C126.736 68.592 125.882 69.1467 125.029 70.256C124.176 71.28 123.536 72.1333 123.109 72.816C122.512 73.7547 121.573 75.3333 120.293 77.552C119.013 79.7707 117.69 82.2027 116.325 84.848C115.045 87.408 113.936 89.7973 112.997 92.016C112.058 94.2347 111.589 95.856 111.589 96.88C111.589 98.0747 112.186 98.672 113.381 98.672C114.661 98.672 116.112 98.0747 117.733 96.88C119.354 95.6853 120.976 94.2347 122.597 92.528C124.304 90.736 125.84 88.9867 127.205 87.28C128.656 85.488 129.808 84.08 130.661 83.056C131.173 83.568 131.13 84.2933 130.533 85.232C130.021 86.0853 129.552 86.768 129.125 87.28C127.418 89.4987 125.456 91.8027 123.237 94.192C121.018 96.496 118.586 98.4587 115.941 100.08C113.381 101.616 110.736 102.384 108.005 102.384ZM94.181 97.904C95.205 97.904 96.613 97.1787 98.405 95.728C100.282 94.192 102.288 92.3147 104.421 90.096C106.554 87.792 108.56 85.4027 110.437 82.928C112.314 80.368 113.85 78.064 115.045 76.016C116.325 73.8827 116.965 72.2613 116.965 71.152C116.965 70.2133 116.666 69.5733 116.069 69.232C115.557 68.8907 114.874 68.72 114.021 68.72C112.656 68.72 111.162 69.232 109.541 70.256C108.005 71.1947 106.768 72.1333 105.829 73.072C104.805 74.0107 103.568 75.504 102.117 77.552C100.752 79.5147 99.3863 81.6907 98.021 84.08C96.6557 86.4693 95.5037 88.7733 94.565 90.992C93.6263 93.2107 93.157 95.0027 93.157 96.368C93.157 97.392 93.4983 97.904 94.181 97.904ZM141.022 104.048C139.486 104.048 137.865 103.835 136.158 103.408C134.451 102.981 132.915 102.299 131.55 101.36C130.27 100.336 129.417 98.9707 128.99 97.264C128.905 97.008 128.862 96.624 128.862 96.112C128.862 94.9173 129.118 93.5947 129.63 92.144C130.227 90.6933 130.953 89.6693 131.806 89.072C132.147 88.9013 132.403 88.9013 132.574 89.072C132.83 89.2427 132.873 89.4133 132.702 89.584C132.617 89.84 132.489 90.1813 132.318 90.608C132.147 90.9493 132.019 91.3333 131.934 91.76C131.678 93.9787 132.147 95.9413 133.342 97.648C133.854 98.3307 134.451 98.9707 135.134 99.568C135.902 100.165 136.627 100.677 137.31 101.104C137.907 101.445 138.633 101.701 139.486 101.872C140.339 101.957 141.193 102 142.046 102C143.411 102 144.734 101.829 146.014 101.488C147.294 101.147 148.233 100.592 148.83 99.824C149.939 98.4587 150.494 96.9227 150.494 95.216C150.494 93.936 150.153 92.5707 149.47 91.12C148.787 89.6693 147.721 88.1333 146.27 86.512C145.331 85.488 144.435 84.3787 143.582 83.184C142.729 81.9893 142.174 80.7093 141.918 79.344C141.833 79.088 141.747 78.832 141.662 78.576C141.662 78.32 141.662 78.064 141.662 77.808C140.553 79.4293 139.401 80.9653 138.206 82.416C137.097 83.7813 136.115 84.976 135.262 86C134.921 86.512 134.622 86.768 134.366 86.768C134.195 86.768 134.11 86.5973 134.11 86.256C134.11 85.488 134.451 84.6773 135.134 83.824C135.817 83.056 136.585 82.1173 137.438 81.008C138.291 79.8133 138.974 78.8747 139.486 78.192C140.937 76.0587 142.003 74.3947 142.686 73.2C143.454 71.92 144.265 70.768 145.118 69.744C146.057 68.6347 147.209 67.7387 148.574 67.056C150.025 66.3733 151.518 66.032 153.054 66.032C154.846 66.032 156.467 66.3307 157.918 66.928C159.454 67.44 160.265 68.8053 160.35 71.024C160.35 72.048 160.137 73.1147 159.71 74.224C159.369 75.248 158.985 76.2293 158.558 77.168C158.302 77.68 157.918 78.064 157.406 78.32C156.979 78.4907 156.766 78.4053 156.766 78.064C156.766 77.7227 156.809 77.3387 156.894 76.912C156.979 76.4853 157.022 76.1013 157.022 75.76C157.022 74.3093 156.766 73.0293 156.254 71.92C155.827 70.7253 155.187 69.872 154.334 69.36C153.481 68.7627 152.585 68.464 151.646 68.464C150.281 68.464 148.958 69.0187 147.678 70.128C146.398 71.152 145.758 72.5173 145.758 74.224C145.758 74.3947 145.758 74.608 145.758 74.864C145.758 75.12 145.801 75.3333 145.886 75.504C146.227 76.8693 147.251 78.4053 148.958 80.112C150.665 81.8187 151.987 83.312 152.926 84.592C154.547 86.8107 155.358 89.072 155.358 91.376C155.358 93.68 154.675 95.8133 153.31 97.776C152.03 99.6533 150.281 101.147 148.062 102.256C145.929 103.451 143.582 104.048 141.022 104.048ZM187.156 102.768C185.876 102.768 184.724 102.512 183.7 102C182.761 101.488 182.292 100.549 182.292 99.184C182.292 98.416 182.463 97.5627 182.804 96.624C183.572 94.6613 184.596 92.272 185.876 89.456C187.241 86.64 188.607 83.9093 189.972 81.264C191.337 78.5333 192.404 76.3147 193.172 74.608C193.684 73.584 193.94 72.8587 193.94 72.432C193.94 71.664 193.513 71.4933 192.66 71.92C191.807 72.3467 190.868 72.944 189.844 73.712C188.82 74.48 188.052 75.0773 187.54 75.504C185.321 77.552 182.975 79.984 180.5 82.8C178.111 85.5307 175.892 88.432 173.844 91.504C171.881 94.4907 170.345 97.4773 169.236 100.464C169.151 100.976 168.596 101.403 167.572 101.744C166.548 102.085 165.609 102.256 164.756 102.256C163.391 102.256 162.879 101.829 163.22 100.976C165.183 96.5387 167.188 91.632 169.236 86.256C171.369 80.88 173.759 75.376 176.404 69.744C178.367 65.4773 180.543 61.0827 182.932 56.56C185.407 52.0373 188.137 47.728 191.124 43.632C194.111 39.4507 197.396 35.7813 200.98 32.624C204.137 29.8933 207.593 27.6747 211.348 25.968C215.188 24.176 219.327 23.28 223.764 23.28C225.727 23.28 227.433 23.7067 228.884 24.56C230.335 25.328 231.145 26.736 231.316 28.784V29.936C231.316 31.1307 231.188 32.3253 230.932 33.52C230.847 33.8613 230.505 34.032 229.908 34.032C229.652 34.032 229.567 33.9893 229.652 33.904C229.993 31.6853 229.396 30.1067 227.86 29.168C226.409 28.2293 224.532 27.76 222.228 27.76C218.047 27.76 214.207 28.528 210.708 30.064C207.209 31.6 203.967 33.648 200.98 36.208C196.372 40.2187 192.361 45.3387 188.948 51.568C185.535 57.7973 182.591 64.1547 180.116 70.64C178.921 73.7973 177.727 76.9547 176.532 80.112C175.423 83.2693 174.356 86.2133 173.332 88.944C177.172 83.824 180.841 79.4293 184.34 75.76C187.924 72.0907 191.039 69.488 193.684 67.952C195.817 66.7573 197.737 66.16 199.444 66.16C201.065 66.16 201.876 66.8427 201.876 68.208C201.876 69.4027 201.279 70.9387 200.084 72.816C199.487 73.7547 198.548 75.3333 197.268 77.552C196.073 79.7707 194.793 82.2027 193.428 84.848C192.148 87.408 191.039 89.7973 190.1 92.016C189.161 94.2347 188.692 95.856 188.692 96.88C188.692 98.2453 189.289 98.928 190.484 98.928C191.167 98.928 191.935 98.7147 192.788 98.288C193.727 97.8613 194.409 97.4773 194.836 97.136C197.14 95.4293 199.401 93.3387 201.62 90.864C203.839 88.3893 205.716 86.2133 207.252 84.336C207.337 84.2507 207.38 84.3787 207.38 84.72C207.38 85.0613 207.295 85.5733 207.124 86.256C207.039 86.8533 206.783 87.3653 206.356 87.792C205.417 89.072 204.436 90.3093 203.412 91.504C202.473 92.6133 201.535 93.7227 200.596 94.832C198.975 96.7093 197.012 98.5013 194.708 100.208C192.489 101.915 189.972 102.768 187.156 102.768ZM234.893 106.352C231.906 106.352 228.749 105.883 225.421 104.944C222.178 104.091 219.277 102.64 216.717 100.592C214.242 98.544 212.578 95.8133 211.725 92.4C211.64 91.9733 211.554 91.504 211.469 90.992C211.469 90.48 211.469 89.968 211.469 89.456C211.469 86.8107 212.066 84.2507 213.261 81.776C214.456 79.3013 215.906 77.424 217.613 76.144H217.741C217.912 76.144 218.125 76.3573 218.381 76.784C218.722 77.1253 218.722 77.3813 218.381 77.552C217.528 78.4053 216.888 79.3867 216.461 80.496C216.12 81.52 215.949 82.6293 215.949 83.824C215.949 85.4453 216.205 87.1093 216.717 88.816C217.314 90.4373 218.04 91.8453 218.893 93.04C221.026 96.0267 223.97 98.416 227.725 100.208C231.565 101.915 235.32 102.768 238.989 102.768C244.024 102.768 247.906 101.275 250.637 98.288C253.453 95.3013 254.861 91.632 254.861 87.28C254.861 84.6347 254.349 81.9893 253.325 79.344C251.96 75.6747 250.125 72.0907 247.821 68.592C245.602 65.008 243.554 61.5093 241.677 58.096C240.056 55.024 239.245 51.9093 239.245 48.752C239.245 45.424 240.269 42.224 242.317 39.152C244.365 36.4213 247.053 34.2453 250.381 32.624C253.794 30.9173 257.25 30.064 260.749 30.064C263.138 30.064 265.442 30.4907 267.661 31.344C269.88 32.1973 271.885 33.6053 273.677 35.568C274.189 36.336 274.445 37.3173 274.445 38.512C274.445 40.2187 274.104 41.5413 273.421 42.48C272.653 43.5893 271.8 45.04 270.861 46.832C269.922 48.624 269.368 49.8613 269.197 50.544C269.026 50.6293 268.6 50.8 267.917 51.056C267.32 51.2267 266.936 51.184 266.765 50.928C267.106 50.2453 267.576 49.008 268.173 47.216C268.77 45.424 269.069 43.8027 269.069 42.352C269.069 41.4133 269.026 40.3893 268.941 39.28C268.941 38.0853 268.386 37.0613 267.277 36.208C266.253 35.2693 264.93 34.4587 263.309 33.776C261.688 33.0933 259.725 32.752 257.421 32.752C252.728 32.752 249.144 34.1173 246.669 36.848C244.194 39.5787 242.957 42.5653 242.957 45.808C242.957 47.4293 243.298 49.0507 243.981 50.672C245.261 53.744 247.053 56.6453 249.357 59.376C251.661 62.1067 253.922 64.9227 256.141 67.824C258.445 70.64 260.237 73.712 261.517 77.04C262.37 79.2587 262.797 81.52 262.797 83.824C262.797 87.152 261.944 90.1813 260.237 92.912C258.616 95.6427 256.397 98.032 253.581 100.08C250.85 102.043 247.864 103.579 244.621 104.688C241.378 105.797 238.136 106.352 234.893 106.352ZM278.947 102.384C278.094 102.384 277.368 102.213 276.771 101.872C276.174 101.531 275.875 100.891 275.875 99.952C275.875 98.7573 276.174 97.3493 276.771 95.728C277.454 94.1067 278.179 92.4853 278.947 90.864C279.715 89.2427 280.355 87.92 280.867 86.896C281.294 86.128 281.848 84.9333 282.531 83.312C283.299 81.6053 284.067 79.856 284.835 78.064C285.688 76.1867 286.371 74.608 286.883 73.328C287.48 72.048 287.779 71.408 287.779 71.408C287.011 72.2613 285.987 73.456 284.707 74.992C283.512 76.528 282.19 78.1493 280.739 79.856C279.374 81.4773 278.094 83.0133 276.899 84.464C275.79 85.9147 274.979 86.9813 274.467 87.664C274.211 88.0053 273.998 88.176 273.827 88.176C273.656 88.176 273.571 87.9627 273.571 87.536C273.571 86.8533 273.784 86.2133 274.211 85.616C275.235 84.336 276.472 82.8 277.923 81.008C279.374 79.1307 280.824 77.2533 282.275 75.376C283.811 73.4987 285.134 71.8347 286.243 70.384C285.56 70.384 284.664 70.4267 283.555 70.512C282.531 70.5973 281.592 70.7253 280.739 70.896C279.886 70.9813 279.416 71.024 279.331 71.024C278.904 71.024 278.947 70.6827 279.459 70C279.971 69.3173 280.654 68.6347 281.507 67.952C282.36 67.2693 283 66.928 283.427 66.928C283.512 66.928 284.195 66.9707 285.475 67.056C286.755 67.056 287.694 67.056 288.291 67.056C289.998 64.752 291.662 62.1067 293.283 59.12C294.99 56.1333 296.654 52.848 298.275 49.264C298.958 49.1787 300.11 48.7093 301.731 47.856C303.438 46.9173 304.76 45.9787 305.699 45.04C306.126 44.6133 306.467 44.4 306.723 44.4C307.235 44.4 307.235 44.7413 306.723 45.424C306.126 46.1067 305.102 47.5573 303.651 49.776C302.2 51.9093 300.579 54.512 298.787 57.584C296.995 60.5707 295.288 63.728 293.667 67.056H304.035C304.974 67.056 305.443 67.184 305.443 67.44C305.443 67.7813 304.803 68.1227 303.523 68.464C302.072 68.8907 300.536 69.1467 298.915 69.232C297.379 69.3173 295.928 69.488 294.563 69.744C293.283 70 292.344 70.5547 291.747 71.408C291.235 72.0053 290.51 73.2853 289.571 75.248C288.632 77.2107 287.608 79.472 286.499 82.032C285.475 84.5067 284.579 87.024 283.811 89.584C283.043 92.0587 282.574 94.1493 282.403 95.856V96.368C282.403 97.0507 282.616 97.6053 283.043 98.032C283.47 98.4587 283.896 98.672 284.323 98.672C285.432 98.672 286.84 97.9893 288.547 96.624C290.339 95.2587 292.174 93.6373 294.051 91.76C295.928 89.7973 297.55 88.0053 298.915 86.384C299.512 85.7013 300.024 85.0613 300.451 84.464C300.963 83.8667 301.262 83.4827 301.347 83.312C301.518 83.6533 301.603 83.9093 301.603 84.08C301.603 84.592 301.432 85.1467 301.091 85.744C300.835 86.3413 300.536 86.8533 300.195 87.28C298.574 89.4133 296.611 91.6747 294.307 94.064C292.003 96.368 289.528 98.3307 286.883 99.952C284.323 101.573 281.678 102.384 278.947 102.384ZM306.37 102.256C305.005 102.256 303.767 102 302.658 101.488C301.634 100.891 301.122 99.6533 301.122 97.776C301.122 94.7893 301.89 91.8027 303.426 88.816C304.962 85.744 306.541 83.056 308.162 80.752C309.613 78.7893 311.234 76.9547 313.026 75.248C314.903 73.456 316.909 71.92 319.042 70.64C320.407 69.7867 322.242 68.8907 324.546 67.952C326.935 66.928 328.941 66.416 330.562 66.416C331.927 66.416 333.122 66.8 334.146 67.568C335.17 68.2507 335.682 69.5307 335.682 71.408C335.682 74.3093 334.914 77.296 333.378 80.368C331.927 83.3547 330.391 86 328.77 88.304C328.002 89.328 327.234 90.3093 326.466 91.248C325.698 92.1013 324.845 92.9973 323.906 93.936C327.063 93.936 329.965 93.04 332.61 91.248C335.255 89.3707 337.559 87.1093 339.522 84.464L339.778 84.208C340.034 84.208 340.162 84.464 340.162 84.976C340.162 85.5733 339.991 86.128 339.65 86.64C337.943 89.0293 335.81 91.1627 333.25 93.04C330.69 94.832 327.789 95.728 324.546 95.728C324.205 95.728 323.863 95.728 323.522 95.728C323.181 95.728 322.839 95.6853 322.498 95.6C317.719 100.037 312.343 102.256 306.37 102.256ZM309.698 100.08C310.893 100.08 312.173 99.6533 313.538 98.8C314.989 97.9467 316.098 97.136 316.866 96.368C318.317 94.9173 319.639 93.3813 320.834 91.76C322.029 90.0533 323.138 88.3467 324.162 86.64C325.357 84.592 326.551 82.16 327.746 79.344C328.941 76.528 329.538 73.8827 329.538 71.408C329.538 69.4453 328.855 68.464 327.49 68.464C326.381 68.464 325.015 68.9333 323.394 69.872C321.858 70.8107 320.706 71.664 319.938 72.432C317.037 75.4187 314.605 78.6613 312.642 82.16C311.533 84.1227 310.338 86.4267 309.058 89.072C307.778 91.7173 307.138 94.1493 307.138 96.368C307.138 96.7093 307.138 97.0507 307.138 97.392C307.223 97.648 307.309 97.9467 307.394 98.288C307.735 99.4827 308.503 100.08 309.698 100.08ZM344.085 103.792C343.744 103.792 343.744 103.451 344.085 102.768C344.512 102 344.896 101.147 345.237 100.208C345.664 99.2693 346.09 98.2453 346.517 97.136C347.37 95.088 348.309 92.784 349.333 90.224C350.357 87.664 351.338 85.1893 352.277 82.8C353.216 80.3253 354.026 78.2347 354.709 76.528C355.477 74.736 355.989 73.584 356.245 73.072C355.05 74.352 353.6 75.9733 351.893 77.936C350.272 79.8133 348.736 81.648 347.285 83.44C345.834 85.232 344.725 86.64 343.957 87.664C343.701 88.0053 343.488 88.176 343.317 88.176C343.146 88.176 343.061 87.9627 343.061 87.536C343.061 86.8533 343.274 86.2133 343.701 85.616C345.322 83.568 347.114 81.264 349.077 78.704C351.125 76.144 352.96 73.7973 354.581 71.664C356.202 69.4453 357.226 67.9947 357.653 67.312C358.592 67.1413 359.957 66.8853 361.749 66.544C363.626 66.2027 364.906 65.7333 365.589 65.136C365.845 64.88 366.101 64.752 366.357 64.752C366.528 64.752 366.613 64.9227 366.613 65.264C366.698 65.52 366.613 65.8187 366.357 66.16C365.845 66.672 365.077 67.7813 364.053 69.488C363.114 71.1947 362.048 73.1573 360.853 75.376C359.658 77.5947 358.506 79.728 357.397 81.776C358.25 80.496 359.36 79.0027 360.725 77.296C362.176 75.504 363.754 73.7973 365.461 72.176C367.168 70.4693 368.874 69.0613 370.581 67.952C372.373 66.8427 374.037 66.288 375.573 66.288C376.682 66.288 377.621 66.544 378.389 67.056C379.157 67.4827 379.754 68.2933 380.181 69.488C380.437 70.0853 380.565 70.768 380.565 71.536C380.565 72.9867 380.181 74.3947 379.413 75.76C378.73 77.04 378.218 78.0213 377.877 78.704C377.792 78.96 377.493 79.216 376.981 79.472C376.469 79.6427 376.256 79.5573 376.341 79.216C376.426 78.7893 376.469 78.3627 376.469 77.936C376.554 77.5093 376.597 77.04 376.597 76.528C376.597 75.0773 376.298 73.7547 375.701 72.56C375.189 71.3653 374.208 70.768 372.757 70.768C371.392 70.768 369.728 71.6213 367.765 73.328C365.802 75.0347 363.84 76.9973 361.877 79.216C359.402 82.1173 357.44 84.8907 355.989 87.536C354.538 90.096 353.344 92.6133 352.405 95.088C351.893 96.4533 351.381 97.8187 350.869 99.184C350.357 100.464 349.973 101.488 349.717 102.256C348.608 102.341 347.498 102.597 346.389 103.024C345.28 103.536 344.512 103.792 344.085 103.792ZM390.608 103.024C387.109 103.024 384.677 102.341 383.312 100.976C381.947 99.6107 381.264 97.9467 381.264 95.984C381.264 93.5093 381.904 90.864 383.184 88.048C384.549 85.232 385.829 82.8427 387.024 80.88C388.389 78.832 390.224 76.6987 392.528 74.48C394.832 72.2613 397.349 70.384 400.08 68.848C402.811 67.312 405.456 66.544 408.016 66.544C410.235 66.544 411.771 67.0987 412.624 68.208C413.477 69.232 413.904 70.4693 413.904 71.92C413.904 74.5653 413.093 76.7413 411.472 78.448C409.936 80.1547 408.016 81.5627 405.712 82.672C403.408 83.696 401.189 84.5493 399.056 85.232C397.776 85.5733 396.283 85.9147 394.576 86.256C392.869 86.5973 391.248 86.768 389.712 86.768C389.115 88.304 388.645 89.7973 388.304 91.248C387.963 92.6987 387.792 94.0213 387.792 95.216C387.792 96.6667 388.133 97.8613 388.816 98.8C389.584 99.7387 390.821 100.208 392.528 100.208C393.211 100.208 394.021 100.123 394.96 99.952C395.899 99.7813 396.923 99.5253 398.032 99.184C400.592 98.3307 403.109 96.9653 405.584 95.088C408.059 93.2107 410.32 91.2053 412.368 89.072C414.501 86.8533 416.123 85.0187 417.232 83.568C417.488 83.824 417.616 84.1227 417.616 84.464C417.616 84.8907 417.317 85.5733 416.72 86.512C415.013 88.9013 412.795 91.376 410.064 93.936C407.333 96.496 404.304 98.672 400.976 100.464C397.648 102.171 394.192 103.024 390.608 103.024ZM390.736 84.208C391.845 84.2933 393.083 84.2933 394.448 84.208C395.899 84.0373 397.307 83.7387 398.672 83.312C402.171 82.288 404.688 80.6667 406.224 78.448C407.845 76.144 408.656 74.096 408.656 72.304C408.656 71.28 408.443 70.4267 408.016 69.744C407.589 69.0613 406.907 68.72 405.968 68.72C403.493 68.72 401.275 69.6587 399.312 71.536C397.349 73.328 395.643 75.4187 394.192 77.808C392.741 80.1973 391.589 82.3307 390.736 84.208Z" fill="white"/>
</svg>
