<svg width="89" height="74" viewBox="0 0 89 74" fill="none" xmlns="http://www.w3.org/2000/svg">
<path d="M2.28 73.432C2.10933 73.432 1.81067 73.3467 1.384 73.176C0.957333 73.0907 0.744 72.92 0.744 72.664C0.744 72.5787 0.786667 72.4933 0.872 72.408C0.957333 72.3227 1 72.28 1 72.28C1.59733 72.1093 1.85333 72.024 1.768 72.024C1.768 72.1093 2.06667 72.0667 2.664 71.896C4.11467 71.384 5.352 70.6587 6.376 69.72C7.48533 68.696 8.424 67.5013 9.192 66.136C13.2027 59.48 17.0427 52.7387 20.712 45.912C24.3813 39 28.0507 32.1307 31.72 25.304C32.744 23.512 33.7253 21.6773 34.664 19.8C35.6027 17.9227 36.5413 16.0453 37.48 14.168C37.9067 13.144 38.3333 12.12 38.76 11.096C39.272 10.072 39.8267 9.09066 40.424 8.152C41.1067 6.95733 42.1733 5.93333 43.624 5.07999C45.16 4.14133 46.6107 3.45866 47.976 3.032H44.904C43.1973 3.032 40.8507 3.16 37.864 3.416C34.9627 3.58666 31.8907 3.928 28.648 4.43999C25.4053 4.952 22.504 5.72 19.944 6.744C17.4693 7.768 15.7627 9.13333 14.824 10.84C13.9707 12.376 13.544 13.8693 13.544 15.32C13.544 17.0267 13.928 18.1787 14.696 18.776C15.464 19.3733 15.848 19.7573 15.848 19.928C15.848 20.0987 15.72 20.2693 15.464 20.44C15.208 20.6107 14.9947 20.696 14.824 20.696C14.312 20.696 13.672 20.184 12.904 19.16C12.136 18.136 11.4107 17.0267 10.728 15.832C10.1307 14.552 9.74667 13.6987 9.576 13.272C9.32 12.3333 9.192 11.3947 9.192 10.456C9.192 8.152 9.96 6.40267 11.496 5.208C13.1173 3.928 15.08 3.032 17.384 2.52C19.688 2.008 21.992 1.70933 24.296 1.62399C26.6853 1.45333 28.648 1.368 30.184 1.368C34.4507 1.368 38.7173 1.28266 42.984 1.112C47.2507 0.855998 51.4747 0.727997 55.656 0.727997C59.6667 0.727997 63.592 1.02666 67.432 1.62399C71.3573 2.136 74.8987 3.20266 78.056 4.824C81.2133 6.44533 83.7307 8.74933 85.608 11.736C87.5707 14.7227 88.552 18.648 88.552 23.512C88.552 27.9493 87.6987 32.5147 85.992 37.208C84.3707 41.816 82.3227 45.9547 79.848 49.624C69.4373 65.24 54.8453 73.048 36.072 73.048C33.1707 73.048 30.184 72.7493 27.112 72.152C24.1253 71.5547 21.3093 70.5733 18.664 69.208C18.0667 68.8667 17.4267 68.6107 16.744 68.44C16.1467 68.184 15.5067 68.056 14.824 68.056C13.3733 68.056 11.9227 68.5253 10.472 69.464C9.02133 70.3173 7.61333 71.1707 6.248 72.024C4.88267 72.9627 3.56 73.432 2.28 73.432ZM34.536 71.256C40.936 71.256 46.9093 70.0187 52.456 67.544C58.0027 65.0693 62.8667 61.6133 67.048 57.176C71.2293 52.6533 74.5147 47.4907 76.904 41.688C78.0133 38.9573 78.9093 36.0987 79.592 33.112C80.36 30.1253 80.744 27.1813 80.744 24.28C80.744 17.624 78.696 12.504 74.6 8.92C70.5893 5.25067 65.2987 3.416 58.728 3.416C57.1067 3.416 55.4 3.58666 53.608 3.92799C51.9013 4.26933 50.4933 5.08 49.384 6.36C48.2747 7.72533 47.208 9.21866 46.184 10.84C45.2453 12.4613 44.3067 14.04 43.368 15.576C41.4053 18.9893 39.528 22.5307 37.736 26.2C36.0293 29.784 34.28 33.3253 32.488 36.824C29.672 42.2 26.8987 47.6187 24.168 53.08C23.5707 54.2747 22.9307 55.512 22.248 56.792C21.6507 57.9867 21.0533 59.1813 20.456 60.376C20.2853 60.8027 20.1147 61.272 19.944 61.784C19.7733 62.2107 19.688 62.7227 19.688 63.32C19.688 64.4293 20.0293 65.368 20.712 66.136C21.3947 66.904 22.12 67.6293 22.888 68.312C24.5093 69.5067 26.3867 70.3173 28.52 70.744C30.6533 71.0853 32.6587 71.256 34.536 71.256Z" fill="white"/>
</svg>
